<svg width="9" height="8" viewBox="0 0 9 8" fill="none" xmlns="http://www.w3.org/2000/svg">
<path fill-rule="evenodd" clip-rule="evenodd" d="M8.70449 0.324065C8.75105 0.369406 8.78799 0.42327 8.8132 0.48257C8.8384 0.541871 8.85138 0.605444 8.85138 0.669647C8.85138 0.73385 8.8384 0.797423 8.8132 0.856724C8.78799 0.916024 8.75105 0.969888 8.70449 1.01523L1.70449 7.84877C1.6106 7.94043 1.48326 7.99192 1.35049 7.99192C1.21771 7.99192 1.09037 7.94043 0.996485 7.84877C0.902598 7.75712 0.849854 7.63281 0.849854 7.50319C0.849854 7.37357 0.902598 7.24926 0.996485 7.15761L7.99649 0.324065C8.04293 0.278609 8.09811 0.242544 8.15885 0.217937C8.2196 0.19333 8.28472 0.180664 8.35049 0.180664C8.41625 0.180664 8.48137 0.19333 8.54212 0.217937C8.60286 0.242544 8.65804 0.278609 8.70449 0.324065Z" fill="#292739"/>
<path fill-rule="evenodd" clip-rule="evenodd" d="M0.996503 0.324065C0.94994 0.369406 0.912997 0.42327 0.88779 0.48257C0.862584 0.541871 0.849609 0.605444 0.849609 0.669647C0.849609 0.73385 0.862584 0.797423 0.88779 0.856724C0.912997 0.916024 0.94994 0.969888 0.996503 1.01523L7.9965 7.84877C8.09039 7.94043 8.21773 7.99192 8.3505 7.99192C8.48328 7.99192 8.61062 7.94043 8.7045 7.84877C8.79839 7.75712 8.85114 7.63281 8.85114 7.50319C8.85114 7.37357 8.79839 7.24926 8.7045 7.15761L1.7045 0.324065C1.65806 0.278609 1.60288 0.242544 1.54214 0.217937C1.48139 0.19333 1.41627 0.180664 1.3505 0.180664C1.28474 0.180664 1.21961 0.19333 1.15887 0.217937C1.09812 0.242544 1.04295 0.278609 0.996503 0.324065Z" fill="#292739"/>
</svg>
