<svg width="17" height="17" viewBox="0 0 17 17" fill="none" xmlns="http://www.w3.org/2000/svg">
<path d="M15.8307 14.169L11.3345 9.6728C11.9207 8.79254 12.2628 7.73648 12.2628 6.60187C12.2628 3.53884 9.77088 1.04688 6.70782 1.04688C3.64477 1.04688 1.15283 3.53884 1.15283 6.60187C1.15283 9.66489 3.6448 12.1569 6.70782 12.1569C7.84243 12.1569 8.89847 11.8147 9.77876 11.2285L14.275 15.7247C14.4828 15.9325 14.759 16.0469 15.0528 16.0469C15.3467 16.0469 15.6229 15.9325 15.8307 15.7247C16.2596 15.2958 16.2596 14.5979 15.8307 14.169ZM6.70782 11.5709C3.96789 11.5709 1.73877 9.34183 1.73877 6.60187C1.73877 3.86193 3.96789 1.63281 6.70782 1.63281C9.44776 1.63281 11.6769 3.86193 11.6769 6.60187C11.6769 9.3418 9.44776 11.5709 6.70782 11.5709ZM15.4163 15.3104C15.3192 15.4075 15.1901 15.461 15.0528 15.461C14.9155 15.461 14.7864 15.4075 14.6893 15.3104L10.2536 10.8747C10.5177 10.6552 10.7611 10.4117 10.9806 10.1477L15.4163 14.5833C15.6168 14.7838 15.6168 15.11 15.4163 15.3104Z" fill="#8F949C" stroke="#8F949C" stroke-width="0.4"/>
</svg>
